<svg width="69" height="66" viewBox="0 0 69 66" fill="none" xmlns="http://www.w3.org/2000/svg">
<path d="M31.3056 34.0151C31.3056 34.0151 13.9492 5.83449 26.3468 0.80179C38.7444 -4.23021 45.1911 15.3956 35.7686 32.5051C35.7686 32.5051 46.6783 8.85369 58.5801 12.3764C70.482 15.8985 63.5396 34.5186 39.2401 38.5442C39.2401 38.5442 68.4983 34.5186 68.9941 47.099C69.4905 59.68 38.7444 56.1573 35.2729 38.5442C35.2729 38.5442 44.6953 69.2412 24.8589 65.7184C5.0225 62.1957 30.8098 36.5314 30.8098 36.5314C30.8098 36.5314 4.52677 52.6345 0.559485 36.0279C-3.4078 19.4212 14.445 19.4212 31.3056 34.0151Z" fill="#2F44BF"/>
</svg>
