<svg width="78" height="77" viewBox="0 0 78 77" fill="none" xmlns="http://www.w3.org/2000/svg">
<path d="M74.9332 29.2427L67.0334 28.2808C64.4488 27.9656 63.1091 25.0428 64.5624 22.8904L69.0065 16.3118C70.9933 13.3697 67.8022 9.70021 64.5967 11.2415L57.4288 14.6872C55.0844 15.815 52.3706 14.0779 52.4262 11.484L52.594 3.55558C52.6695 0.0104348 47.9939 -1.35739 46.1331 1.6655L41.9735 8.42565C40.6126 10.6378 37.3878 10.6378 36.0262 8.42565L31.866 1.6655C30.0058 -1.35739 25.3302 0.0104348 25.4057 3.55558L25.5742 11.484C25.6291 14.0779 22.9159 15.815 20.571 14.6872L13.4031 11.2415C10.1976 9.70021 7.00644 13.3697 8.99326 16.3118L13.4368 22.8904C14.8907 25.0428 13.551 27.9656 10.9663 28.2808L3.0665 29.2427C-0.465966 29.6729 -1.15923 34.4789 2.10803 35.8834L9.4157 39.0244C11.8069 40.0516 12.2661 43.2324 10.2625 44.8893L4.13853 49.9546C1.40042 52.2196 3.42467 56.6364 6.93592 56.0576L14.7877 54.7631C17.3567 54.3391 19.469 56.7676 18.6821 59.2409L16.2791 66.8006C15.2046 70.1809 19.3042 72.8065 21.9438 70.4278L27.8468 65.1094C29.7781 63.3692 32.8725 64.2744 33.5533 66.7788L35.6331 74.433C36.5628 77.8557 41.4369 77.8557 42.3667 74.433L44.4465 66.7788C45.1272 64.2744 48.2217 63.3692 50.1529 65.1094L56.056 70.4278C58.6961 72.8065 62.7958 70.1809 61.7207 66.8006L59.3176 59.2409C58.5314 56.7676 60.643 54.3391 63.212 54.7631L71.0638 56.0576C74.5751 56.6364 76.5999 52.2196 73.8612 49.9546L67.7373 44.8893C65.7342 43.2324 66.1929 40.0516 68.584 39.0244L75.8917 35.8834C79.1596 34.4789 78.4657 29.6729 74.9332 29.2427Z" fill="#FFD362"/>
</svg>
