<svg width="167" height="167" viewBox="0 0 167 167" fill="none" xmlns="http://www.w3.org/2000/svg">
<path d="M129.84 88.5598L94.36 94.3598L88.56 129.84H78.1067L72.32 94.3598L36.84 88.5598V78.1198L72.32 72.3198L78.1067 36.8398H88.56L94.36 72.3198L129.84 78.1198V88.5598ZM154.613 53.8532C147.147 46.2665 136.84 41.4932 125.4 41.2798C124.96 18.4132 106.307 -0.000152588 83.3333 -0.000152588C71.8533 -0.000152588 61.4547 4.59985 53.8533 12.0665C46.2667 19.5332 41.4933 29.8532 41.28 41.2798C18.4133 41.7065 0 60.3732 0 83.3332C0 94.8132 4.59999 105.227 12.0667 112.827C19.5333 120.413 29.8533 125.187 41.28 125.4C41.7067 148.267 60.3733 166.667 83.3333 166.667C94.8133 166.667 105.227 162.067 112.813 154.613C120.413 147.147 125.187 136.84 125.4 125.4C148.267 124.973 166.667 106.307 166.667 83.3332C166.667 71.8532 162.067 61.4532 154.613 53.8532Z" fill="black"/>
</svg>
