<svg width="1826" height="1318" viewBox="0 0 1826 1318" fill="none" xmlns="http://www.w3.org/2000/svg">
<g clip-path="url(#clip0_295_613)">
<rect width="1826" height="1318" fill="#E8E8E8"/>
<rect width="100" height="100" fill="white"/>
<rect x="101.5" width="100" height="100" fill="white"/>
<rect x="203" width="100" height="100" fill="white"/>
<rect x="304.5" width="100" height="100" fill="white"/>
<rect x="406" width="100" height="100" fill="white"/>
<rect x="507.5" width="100" height="100" fill="white"/>
<rect x="609" width="100" height="100" fill="white"/>
<rect x="710.5" width="100" height="100" fill="white"/>
<rect x="812" width="100" height="100" fill="white"/>
<rect x="913.5" width="100" height="100" fill="white"/>
<rect x="1015" width="100" height="100" fill="white"/>
<rect x="1116.5" width="100" height="100" fill="white"/>
<rect x="1218" width="100" height="100" fill="white"/>
<rect x="1319.5" width="100" height="100" fill="white"/>
<rect x="1421" width="100" height="100" fill="white"/>
<rect x="1522.5" width="100" height="100" fill="white"/>
<rect x="1624" width="100" height="100" fill="white"/>
<rect x="1725.5" width="100" height="100" fill="white"/>
<rect y="101.5" width="100" height="100" fill="white"/>
<rect x="101.5" y="101.5" width="100" height="100" fill="white"/>
<rect x="203" y="101.5" width="100" height="100" fill="white"/>
<rect x="304.5" y="101.5" width="100" height="100" fill="white"/>
<rect x="406" y="101.5" width="100" height="100" fill="white"/>
<rect x="507.5" y="101.5" width="100" height="100" fill="white"/>
<rect x="609" y="101.5" width="100" height="100" fill="white"/>
<rect x="710.5" y="101.5" width="100" height="100" fill="white"/>
<rect x="812" y="101.5" width="100" height="100" fill="white"/>
<rect x="913.5" y="101.5" width="100" height="100" fill="white"/>
<rect x="1015" y="101.5" width="100" height="100" fill="white"/>
<rect x="1116.5" y="101.5" width="100" height="100" fill="white"/>
<rect x="1218" y="101.5" width="100" height="100" fill="white"/>
<rect x="1319.5" y="101.5" width="100" height="100" fill="white"/>
<rect x="1421" y="101.5" width="100" height="100" fill="white"/>
<rect x="1522.5" y="101.5" width="100" height="100" fill="white"/>
<rect x="1624" y="101.5" width="100" height="100" fill="white"/>
<rect x="1725.5" y="101.5" width="100" height="100" fill="white"/>
<rect y="203" width="100" height="100" fill="white"/>
<rect x="101.5" y="203" width="100" height="100" fill="white"/>
<rect x="203" y="203" width="100" height="100" fill="white"/>
<rect x="304.5" y="203" width="100" height="100" fill="white"/>
<rect x="406" y="203" width="100" height="100" fill="white"/>
<rect x="507.5" y="203" width="100" height="100" fill="white"/>
<rect x="609" y="203" width="100" height="100" fill="white"/>
<rect x="710.5" y="203" width="100" height="100" fill="white"/>
<rect x="812" y="203" width="100" height="100" fill="white"/>
<rect x="913.5" y="203" width="100" height="100" fill="white"/>
<rect x="1015" y="203" width="100" height="100" fill="white"/>
<rect x="1116.5" y="203" width="100" height="100" fill="white"/>
<rect x="1218" y="203" width="100" height="100" fill="white"/>
<rect x="1319.5" y="203" width="100" height="100" fill="white"/>
<rect x="1421" y="203" width="100" height="100" fill="white"/>
<rect x="1522.5" y="203" width="100" height="100" fill="white"/>
<rect x="1624" y="203" width="100" height="100" fill="white"/>
<rect x="1725.5" y="203" width="100" height="100" fill="white"/>
<rect y="304.5" width="100" height="100" fill="white"/>
<rect x="101.5" y="304.5" width="100" height="100" fill="white"/>
<rect x="203" y="304.5" width="100" height="100" fill="white"/>
<rect x="304.5" y="304.5" width="100" height="100" fill="white"/>
<rect x="406" y="304.5" width="100" height="100" fill="white"/>
<rect x="507.5" y="304.5" width="100" height="100" fill="white"/>
<rect x="609" y="304.5" width="100" height="100" fill="white"/>
<rect x="710.5" y="304.5" width="100" height="100" fill="white"/>
<rect x="812" y="304.5" width="100" height="100" fill="white"/>
<rect x="913.5" y="304.5" width="100" height="100" fill="white"/>
<rect x="1015" y="304.5" width="100" height="100" fill="white"/>
<rect x="1116.5" y="304.5" width="100" height="100" fill="white"/>
<rect x="1218" y="304.5" width="100" height="100" fill="white"/>
<rect x="1319.5" y="304.5" width="100" height="100" fill="white"/>
<rect x="1421" y="304.5" width="100" height="100" fill="white"/>
<rect x="1522.5" y="304.5" width="100" height="100" fill="white"/>
<rect x="1624" y="304.5" width="100" height="100" fill="white"/>
<rect x="1725.5" y="304.5" width="100" height="100" fill="white"/>
<rect y="406" width="100" height="100" fill="white"/>
<rect x="101.5" y="406" width="100" height="100" fill="white"/>
<rect x="203" y="406" width="100" height="100" fill="white"/>
<rect x="304.5" y="406" width="100" height="100" fill="white"/>
<rect x="406" y="406" width="100" height="100" fill="white"/>
<rect x="507.5" y="406" width="100" height="100" fill="white"/>
<rect x="609" y="406" width="100" height="100" fill="white"/>
<rect x="710.5" y="406" width="100" height="100" fill="white"/>
<rect x="812" y="406" width="100" height="100" fill="white"/>
<rect x="913.5" y="406" width="100" height="100" fill="white"/>
<rect x="1015" y="406" width="100" height="100" fill="white"/>
<rect x="1116.5" y="406" width="100" height="100" fill="white"/>
<rect x="1218" y="406" width="100" height="100" fill="white"/>
<rect x="1319.5" y="406" width="100" height="100" fill="white"/>
<rect x="1421" y="406" width="100" height="100" fill="white"/>
<rect x="1522.5" y="406" width="100" height="100" fill="white"/>
<rect x="1624" y="406" width="100" height="100" fill="white"/>
<rect x="1725.5" y="406" width="100" height="100" fill="white"/>
<rect y="507.5" width="100" height="100" fill="white"/>
<rect x="101.5" y="507.5" width="100" height="100" fill="white"/>
<rect x="203" y="507.5" width="100" height="100" fill="white"/>
<rect x="304.5" y="507.5" width="100" height="100" fill="white"/>
<rect x="406" y="507.5" width="100" height="100" fill="white"/>
<rect x="507.5" y="507.5" width="100" height="100" fill="white"/>
<rect x="609" y="507.5" width="100" height="100" fill="white"/>
<rect x="710.5" y="507.5" width="100" height="100" fill="white"/>
<rect x="812" y="507.5" width="100" height="100" fill="white"/>
<rect x="913.5" y="507.5" width="100" height="100" fill="white"/>
<rect x="1015" y="507.5" width="100" height="100" fill="white"/>
<rect x="1116.5" y="507.5" width="100" height="100" fill="white"/>
<rect x="1218" y="507.5" width="100" height="100" fill="white"/>
<rect x="1319.5" y="507.5" width="100" height="100" fill="white"/>
<rect x="1421" y="507.5" width="100" height="100" fill="white"/>
<rect x="1522.5" y="507.5" width="100" height="100" fill="white"/>
<rect x="1624" y="507.5" width="100" height="100" fill="white"/>
<rect x="1725.5" y="507.5" width="100" height="100" fill="white"/>
<rect y="609" width="100" height="100" fill="white"/>
<rect x="101.5" y="609" width="100" height="100" fill="white"/>
<rect x="203" y="609" width="100" height="100" fill="white"/>
<rect x="304.5" y="609" width="100" height="100" fill="white"/>
<rect x="406" y="609" width="100" height="100" fill="white"/>
<rect x="507.5" y="609" width="100" height="100" fill="white"/>
<rect x="609" y="609" width="100" height="100" fill="white"/>
<rect x="710.5" y="609" width="100" height="100" fill="white"/>
<rect x="812" y="609" width="100" height="100" fill="white"/>
<rect x="913.5" y="609" width="100" height="100" fill="white"/>
<rect x="1015" y="609" width="100" height="100" fill="white"/>
<rect x="1116.5" y="609" width="100" height="100" fill="white"/>
<rect x="1218" y="609" width="100" height="100" fill="white"/>
<rect x="1319.5" y="609" width="100" height="100" fill="white"/>
<rect x="1421" y="609" width="100" height="100" fill="white"/>
<rect x="1522.5" y="609" width="100" height="100" fill="white"/>
<rect x="1624" y="609" width="100" height="100" fill="white"/>
<rect x="1725.5" y="609" width="100" height="100" fill="white"/>
<rect y="710.5" width="100" height="100" fill="white"/>
<rect x="101.5" y="710.5" width="100" height="100" fill="white"/>
<rect x="203" y="710.5" width="100" height="100" fill="white"/>
<rect x="304.5" y="710.5" width="100" height="100" fill="white"/>
<rect x="406" y="710.5" width="100" height="100" fill="white"/>
<rect x="507.5" y="710.5" width="100" height="100" fill="white"/>
<rect x="609" y="710.5" width="100" height="100" fill="white"/>
<rect x="710.5" y="710.5" width="100" height="100" fill="white"/>
<rect x="812" y="710.5" width="100" height="100" fill="white"/>
<rect x="913.5" y="710.5" width="100" height="100" fill="white"/>
<rect x="1015" y="710.5" width="100" height="100" fill="white"/>
<rect x="1116.5" y="710.5" width="100" height="100" fill="white"/>
<rect x="1218" y="710.5" width="100" height="100" fill="white"/>
<rect x="1319.5" y="710.5" width="100" height="100" fill="white"/>
<rect x="1421" y="710.5" width="100" height="100" fill="white"/>
<rect x="1522.5" y="710.5" width="100" height="100" fill="white"/>
<rect x="1624" y="710.5" width="100" height="100" fill="white"/>
<rect x="1725.5" y="710.5" width="100" height="100" fill="white"/>
<rect y="812" width="100" height="100" fill="white"/>
<rect x="101.5" y="812" width="100" height="100" fill="white"/>
<rect x="203" y="812" width="100" height="100" fill="white"/>
<rect x="304.5" y="812" width="100" height="100" fill="white"/>
<rect x="406" y="812" width="100" height="100" fill="white"/>
<rect x="507.5" y="812" width="100" height="100" fill="white"/>
<rect x="609" y="812" width="100" height="100" fill="white"/>
<rect x="710.5" y="812" width="100" height="100" fill="white"/>
<rect x="812" y="812" width="100" height="100" fill="white"/>
<rect x="913.5" y="812" width="100" height="100" fill="white"/>
<rect x="1015" y="812" width="100" height="100" fill="white"/>
<rect x="1116.5" y="812" width="100" height="100" fill="white"/>
<rect x="1218" y="812" width="100" height="100" fill="white"/>
<rect x="1319.5" y="812" width="100" height="100" fill="white"/>
<rect x="1421" y="812" width="100" height="100" fill="white"/>
<rect x="1522.5" y="812" width="100" height="100" fill="white"/>
<rect x="1624" y="812" width="100" height="100" fill="white"/>
<rect x="1725.5" y="812" width="100" height="100" fill="white"/>
<rect y="913.5" width="100" height="100" fill="white"/>
<rect x="101.5" y="913.5" width="100" height="100" fill="white"/>
<rect x="203" y="913.5" width="100" height="100" fill="white"/>
<rect x="304.5" y="913.5" width="100" height="100" fill="white"/>
<rect x="406" y="913.5" width="100" height="100" fill="white"/>
<rect x="507.5" y="913.5" width="100" height="100" fill="white"/>
<rect x="609" y="913.5" width="100" height="100" fill="white"/>
<rect x="710.5" y="913.5" width="100" height="100" fill="white"/>
<rect x="812" y="913.5" width="100" height="100" fill="white"/>
<rect x="913.5" y="913.5" width="100" height="100" fill="white"/>
<rect x="1015" y="913.5" width="100" height="100" fill="white"/>
<rect x="1116.5" y="913.5" width="100" height="100" fill="white"/>
<rect x="1218" y="913.5" width="100" height="100" fill="white"/>
<rect x="1319.5" y="913.5" width="100" height="100" fill="white"/>
<rect x="1421" y="913.5" width="100" height="100" fill="white"/>
<rect x="1522.5" y="913.5" width="100" height="100" fill="white"/>
<rect x="1624" y="913.5" width="100" height="100" fill="white"/>
<rect x="1725.5" y="913.5" width="100" height="100" fill="white"/>
<rect y="1015" width="100" height="100" fill="white"/>
<rect x="101.5" y="1015" width="100" height="100" fill="white"/>
<rect x="203" y="1015" width="100" height="100" fill="white"/>
<rect x="304.5" y="1015" width="100" height="100" fill="white"/>
<rect x="406" y="1015" width="100" height="100" fill="white"/>
<rect x="507.5" y="1015" width="100" height="100" fill="white"/>
<rect x="609" y="1015" width="100" height="100" fill="white"/>
<rect x="710.5" y="1015" width="100" height="100" fill="white"/>
<rect x="812" y="1015" width="100" height="100" fill="white"/>
<rect x="913.5" y="1015" width="100" height="100" fill="white"/>
<rect x="1015" y="1015" width="100" height="100" fill="white"/>
<rect x="1116.5" y="1015" width="100" height="100" fill="white"/>
<rect x="1218" y="1015" width="100" height="100" fill="white"/>
<rect x="1319.5" y="1015" width="100" height="100" fill="white"/>
<rect x="1421" y="1015" width="100" height="100" fill="white"/>
<rect x="1522.5" y="1015" width="100" height="100" fill="white"/>
<rect x="1624" y="1015" width="100" height="100" fill="white"/>
<rect x="1725.5" y="1015" width="100" height="100" fill="white"/>
<rect y="1116.5" width="100" height="100" fill="white"/>
<rect x="101.5" y="1116.5" width="100" height="100" fill="white"/>
<rect x="203" y="1116.5" width="100" height="100" fill="white"/>
<rect x="304.5" y="1116.5" width="100" height="100" fill="white"/>
<rect x="406" y="1116.5" width="100" height="100" fill="white"/>
<rect x="507.5" y="1116.5" width="100" height="100" fill="white"/>
<rect x="609" y="1116.5" width="100" height="100" fill="white"/>
<rect x="710.5" y="1116.5" width="100" height="100" fill="white"/>
<rect x="812" y="1116.5" width="100" height="100" fill="white"/>
<rect x="913.5" y="1116.5" width="100" height="100" fill="white"/>
<rect x="1015" y="1116.5" width="100" height="100" fill="white"/>
<rect x="1116.5" y="1116.5" width="100" height="100" fill="white"/>
<rect x="1218" y="1116.5" width="100" height="100" fill="white"/>
<rect x="1319.5" y="1116.5" width="100" height="100" fill="white"/>
<rect x="1421" y="1116.5" width="100" height="100" fill="white"/>
<rect x="1522.5" y="1116.5" width="100" height="100" fill="white"/>
<rect x="1624" y="1116.5" width="100" height="100" fill="white"/>
<rect x="1725.5" y="1116.5" width="100" height="100" fill="white"/>
<rect y="1218" width="100" height="100" fill="white"/>
<rect x="101.5" y="1218" width="100" height="100" fill="white"/>
<rect x="203" y="1218" width="100" height="100" fill="white"/>
<rect x="304.5" y="1218" width="100" height="100" fill="white"/>
<rect x="406" y="1218" width="100" height="100" fill="white"/>
<rect x="507.5" y="1218" width="100" height="100" fill="white"/>
<rect x="609" y="1218" width="100" height="100" fill="white"/>
<rect x="710.5" y="1218" width="100" height="100" fill="white"/>
<rect x="812" y="1218" width="100" height="100" fill="white"/>
<rect x="913.5" y="1218" width="100" height="100" fill="white"/>
<rect x="1015" y="1218" width="100" height="100" fill="white"/>
<rect x="1116.5" y="1218" width="100" height="100" fill="white"/>
<rect x="1218" y="1218" width="100" height="100" fill="white"/>
<rect x="1319.5" y="1218" width="100" height="100" fill="white"/>
<rect x="1421" y="1218" width="100" height="100" fill="white"/>
<rect x="1522.5" y="1218" width="100" height="100" fill="white"/>
<rect x="1624" y="1218" width="100" height="100" fill="white"/>
<rect x="1725.5" y="1218" width="100" height="100" fill="white"/>
</g>
<defs>
<clipPath id="clip0_295_613">
<rect width="1826" height="1318" fill="white"/>
</clipPath>
</defs>
</svg>
